<svg width="100" height="100" viewBox="0 0 100 100" fill="none" xmlns="http://www.w3.org/2000/svg">
<g clip-path="url(#clip0_10_1678)">
<path d="M22.5038 15.0784L17.7487 2.70646C17.4198 1.85079 16.441 1.39484 15.5736 1.69187C11.8131 2.97936 9.11049 5.4322 7.46567 9.05076C7.08637 9.88523 7.44544 10.9035 8.26532 11.3136L20.1198 17.2422C21.5297 17.9469 23.0693 16.5495 22.5038 15.0784Z" fill="#F8D448"/>
<path d="M77.495 15.0783L82.2503 2.70636C82.5793 1.85089 83.5581 1.39494 84.4252 1.69177C88.1858 2.97927 90.8883 5.4321 92.5332 9.05067C92.9125 9.88514 92.5532 10.9034 91.7335 11.3135L79.879 17.2421C78.4691 17.9468 76.9296 16.5494 77.495 15.0783Z" fill="#F8D448"/>
<path d="M22.5038 84.9208L17.7485 97.2927C17.4196 98.1482 16.4408 98.6041 15.5736 98.3073C11.8131 97.0198 9.11049 94.567 7.46567 90.9484C7.08637 90.1139 7.44544 89.0956 8.26532 88.6856L20.1198 82.757C21.5297 82.0523 23.0693 83.4497 22.5038 84.9208Z" fill="#F8D448"/>
<path d="M77.495 84.9208L82.2503 97.2927C82.5793 98.1482 83.5581 98.6041 84.4252 98.3073C88.1858 97.0198 90.8883 94.567 92.5332 90.9484C92.9125 90.1139 92.5532 89.0956 91.7335 88.6856L79.879 82.757C78.4691 82.0523 76.9296 83.4497 77.495 84.9208Z" fill="#F8D448"/>
<path d="M2.22332 52.9983C1.17275 50.9524 1.23674 48.8445 2.24628 46.684C2.52404 46.0894 3.249 45.8536 3.83488 46.1495L9.31709 48.9182C10.1992 49.3636 10.1724 50.6325 9.27235 51.0403L3.76077 53.5381C3.18656 53.7984 2.51101 53.5589 2.22332 52.9983Z" fill="#FBE88C"/>
<path d="M97.7759 52.9983C98.8265 50.9524 98.7625 48.8445 97.7532 46.684C97.4754 46.0894 96.7504 45.8536 96.1646 46.1495L90.6823 48.9182C89.8002 49.3636 89.8271 50.6325 90.7271 51.0403L96.2387 53.5381C96.8127 53.7984 97.4882 53.5589 97.7759 52.9983Z" fill="#FBE88C"/>
<path d="M52.5047 13.0331L61.3048 30.8641C61.6709 31.606 62.3787 32.1203 63.1974 32.2391L82.875 35.0985C84.9366 35.398 85.76 37.9318 84.2681 39.386L70.0292 53.2654C69.4367 53.8429 69.1665 54.6749 69.3064 55.4903L72.6678 75.0884C73.02 77.1417 70.8646 78.7078 69.0206 77.7383L51.4205 68.4854C50.6882 68.1005 49.8134 68.1005 49.0811 68.4854L31.481 77.7383C29.637 78.7078 27.4815 77.1419 27.8338 75.0884L31.1952 55.4903C31.3351 54.6749 31.0647 53.8429 30.4724 53.2654L16.2335 39.386C14.7416 37.9318 15.565 35.398 17.6266 35.0985L37.3042 32.2391C38.1229 32.1201 38.8307 31.606 39.1968 30.8641L47.9968 13.0331C48.9187 11.1648 51.5827 11.1648 52.5047 13.0331Z" fill="#FBE88C"/>
<path d="M72.6681 75.0884L72.1549 72.0964L52.215 61.6134C51.3541 61.1608 50.3257 61.1608 49.4648 61.6134L38.7482 67.2475C37.6986 67.7994 36.4719 66.9081 36.6723 65.7395L39.1839 51.0954C39.3237 50.28 39.0533 49.448 38.4609 48.8705L31.5108 42.096C30.208 40.826 30.9269 38.6134 32.7273 38.3517L44.072 36.7032C44.8907 36.5842 45.5986 36.0701 45.9647 35.3282L54.7367 17.5548L52.505 13.0331C51.583 11.1648 48.919 11.1648 47.997 13.0331L39.1969 30.8641C38.8306 31.6061 38.123 32.1203 37.3043 32.2391L17.6265 35.0985C15.5649 35.398 14.7417 37.9316 16.2334 39.386L30.4723 53.2656C31.0648 53.8429 31.3352 54.6751 31.1953 55.4905L27.8341 75.0884C27.4818 77.1419 29.6373 78.7078 31.4815 77.7383L49.0816 68.4854C49.8139 68.1005 50.6887 68.1005 51.421 68.4854L69.0213 77.7383C70.8649 78.7076 73.0201 77.1417 72.6681 75.0884Z" fill="#FBE372"/>
<path d="M70.4094 55.1968C70.3515 54.8581 70.4635 54.5129 70.7098 54.273L84.8858 40.4547C85.9736 39.3946 86.3575 37.8385 85.8882 36.394C85.4188 34.9495 84.1934 33.9163 82.6901 33.698L63.0994 30.8513C62.7594 30.8019 62.4654 30.5883 62.3135 30.2804L53.5524 12.528C52.8801 11.166 51.5189 10.3198 49.9999 10.3198C48.481 10.3198 47.12 11.166 46.4477 12.528L42.0347 21.4694C41.6782 22.1919 41.9748 23.0668 42.6973 23.4233C43.4197 23.7799 44.2944 23.4832 44.6512 22.7608L49.0641 13.8191C49.3232 13.2942 49.805 13.2374 49.9999 13.2374C50.195 13.2374 50.6769 13.2942 50.9359 13.8191L59.6973 31.5718C60.2748 32.741 61.3896 33.551 62.68 33.7385L82.2708 36.5852C82.8502 36.6694 83.0529 37.11 83.1132 37.2956C83.1737 37.4811 83.2684 37.9567 82.8493 38.3654L68.6732 52.1838C67.7393 53.0941 67.3135 54.4047 67.5341 55.6901L70.8806 75.2019C70.9796 75.779 70.6232 76.1081 70.4653 76.2227C70.3073 76.3373 69.885 76.575 69.3663 76.3021L62.2793 72.5763C61.5662 72.2017 60.6841 72.4756 60.309 73.1887C59.934 73.9019 60.2083 74.7839 60.9214 75.1589L68.0083 78.8846C68.5933 79.192 69.226 79.3439 69.8555 79.3439C70.6734 79.3439 71.4859 79.0875 72.1801 78.5831C73.4089 77.6903 74.0128 76.2056 73.7561 74.7086L70.4094 55.1968Z" fill="#94A3B8"/>
<path d="M56.7315 69.6597L51.8433 67.0902C50.6889 66.4831 49.3107 66.4831 48.1565 67.0902L30.634 76.3024C30.116 76.5751 29.6927 76.3378 29.5348 76.223C29.377 76.1083 29.0207 75.7794 29.1197 75.202L32.4661 55.6904C32.6865 54.4051 32.2607 53.0942 31.3268 52.1841L17.1508 38.3657C16.7316 37.9571 16.8265 37.4815 16.8868 37.2959C16.9471 37.1103 17.15 36.6698 17.7295 36.5855L37.3202 33.7388C38.6106 33.5513 39.7258 32.7413 40.3029 31.5719L41.8814 28.3735C42.238 27.6509 41.9413 26.7761 41.2189 26.4196C40.4961 26.0629 39.6213 26.3597 39.265 27.0821L37.6865 30.2805C37.5344 30.5884 37.2407 30.802 36.9007 30.8514L17.3097 33.6982C15.8065 33.9166 14.5812 34.9497 14.1119 36.3941C13.6425 37.8386 14.0267 39.3947 15.1142 40.4548L29.2903 54.2732C29.5363 54.513 29.6486 54.8583 29.5904 55.1971L26.244 74.7085C25.9872 76.2057 26.591 77.6903 27.8199 78.5831C28.5143 79.0877 29.3266 79.344 30.1448 79.3438C30.7742 79.3438 31.4072 79.1919 31.9919 78.8846L49.5144 69.6724C49.8184 69.5125 50.1816 69.5125 50.4856 69.6724L55.3738 72.2421C56.0874 72.6171 56.9692 72.3425 57.344 71.6296C57.7188 70.9167 57.4446 70.0345 56.7315 69.6597Z" fill="#94A3B8"/>
<path d="M7.61356 12.6184L19.4681 18.547C19.9252 18.7755 20.414 18.8874 20.8985 18.8874C21.6704 18.8874 22.4309 18.6038 23.0337 18.0566C24.0147 17.1661 24.3415 15.7917 23.8661 14.5551L19.1111 2.1832C18.5035 0.602378 16.705 -0.237344 15.1018 0.311772C10.9641 1.72843 7.94832 4.46545 6.13835 8.44697C5.43713 9.98967 6.09887 11.8609 7.61356 12.6184ZM8.79465 9.65452C10.2796 6.38764 12.6519 4.23456 16.0471 3.07233C16.0707 3.06416 16.0956 3.06046 16.1211 3.06046C16.231 3.06046 16.3494 3.13068 16.3877 3.23008L21.1429 15.602C21.1608 15.6487 21.2086 15.773 21.0728 15.8961C20.9374 16.0194 20.8182 15.9599 20.7733 15.9374L8.91856 10.0087C8.80146 9.95019 8.73999 9.77473 8.79465 9.65452Z" fill="#94A3B8"/>
<path d="M76.9664 18.0564C77.5692 18.6034 78.3298 18.8872 79.1018 18.8872C79.5862 18.8872 80.0754 18.7754 80.5323 18.5468L92.3868 12.6182C93.9013 11.8609 94.5631 9.9897 93.8622 8.447C92.0523 4.46547 89.0365 1.72825 84.8988 0.3116C83.2956 -0.237127 81.4971 0.6024 80.8894 2.18303L76.1343 14.555C75.6589 15.7915 75.9855 17.1659 76.9664 18.0564ZM78.8577 15.6018L83.6128 3.22972C83.651 3.13032 83.7694 3.0601 83.8793 3.0601C83.905 3.0601 83.9301 3.06399 83.9534 3.07196C87.3485 4.23439 89.7208 6.38747 91.2057 9.65396C91.2604 9.77417 91.1989 9.94982 91.0816 10.0084L79.2271 15.937C79.1826 15.9594 79.0633 16.0191 78.9275 15.8958C78.792 15.7728 78.8396 15.6485 78.8577 15.6018Z" fill="#94A3B8"/>
<path d="M23.0337 81.943C22.0526 81.0525 20.6531 80.86 19.4681 81.4527L7.61356 87.3813C6.09887 88.1387 5.43713 90.01 6.13835 91.5525C7.94832 95.534 10.9641 98.2712 15.1018 99.6879C15.4348 99.8018 15.7762 99.8559 16.1139 99.8559C17.4008 99.8559 18.6299 99.0687 19.1111 97.8164L23.8663 85.4445C24.3415 84.208 24.0149 82.8335 23.0337 81.943ZM21.1429 84.3978L16.3875 96.7699C16.3405 96.8923 16.1716 96.9703 16.047 96.9277C12.6519 95.7653 10.2796 93.6124 8.79465 90.3453C8.73999 90.2251 8.80146 90.0496 8.91875 89.9911L20.7733 84.0625C20.797 84.0506 20.8417 84.0282 20.8985 84.0282C20.9489 84.0282 21.009 84.0457 21.0728 84.1037C21.2084 84.2266 21.1608 84.3509 21.1429 84.3978Z" fill="#94A3B8"/>
<path d="M92.3868 87.3811L90.3533 86.364C89.6328 86.0035 88.7563 86.2957 88.3961 87.0162C88.0357 87.7369 88.3276 88.6132 89.0485 88.9736L91.082 89.9907C91.1993 90.0493 91.2605 90.2247 91.2059 90.3449C89.7211 93.6118 87.349 95.7649 83.954 96.9271C83.8295 96.9699 83.66 96.8917 83.6132 96.7694L78.8581 84.3974C78.84 84.3508 78.7923 84.2265 78.9279 84.1033C79.0633 83.9804 79.1827 84.0399 79.2274 84.0623L83.427 86.1625C84.1479 86.5231 85.024 86.2307 85.3842 85.5101C85.7447 84.7894 85.4527 83.9131 84.7318 83.5528L80.5322 81.4527C79.3475 80.86 77.9477 81.0526 76.9668 81.9429C75.9856 82.8333 75.6589 84.2078 76.1343 85.4443L80.8894 97.8162C81.3708 99.0685 82.5997 99.8557 83.8869 99.8557C84.2241 99.8557 84.5657 99.8017 84.8987 99.6877C89.0364 98.271 92.0522 95.5338 93.8618 91.5523C94.563 90.01 93.9015 88.1385 92.3868 87.3811Z" fill="#94A3B8"/>
<path d="M11.4215 50.0247C11.4431 49.001 10.8887 48.0782 9.97471 47.6166L4.4925 44.8479C3.8574 44.5271 3.10755 44.4765 2.43511 44.7092C1.76131 44.9422 1.22464 45.4244 0.924506 46.0671C-0.308525 48.7063 -0.308136 51.2626 0.925478 53.6652C1.3929 54.5756 2.3149 55.1035 3.27561 55.1035C3.63994 55.1035 4.0099 55.0274 4.36256 54.8675L9.87414 52.3698C10.8072 51.9469 11.4001 51.0484 11.4215 50.0247ZM3.40691 52.0973C2.75178 50.6724 2.76326 49.191 3.44192 47.5859L8.13362 49.9554L3.40691 52.0973Z" fill="#94A3B8"/>
<path d="M99.0756 46.0674C98.7754 45.4247 98.2389 44.9425 97.5651 44.7093C96.8927 44.4764 96.1428 44.5272 95.5078 44.848L90.0255 47.6167C89.1115 48.0785 88.557 49.001 88.5787 50.0248C88.6003 51.0485 89.193 51.947 90.1257 52.3697L95.6375 54.8676C95.9902 55.0275 96.3601 55.1034 96.7246 55.1034C97.6852 55.1034 98.6074 54.5755 99.0746 53.6653C100.308 51.2623 100.309 48.706 99.0756 46.0674ZM96.5935 52.0973L91.867 49.9553L96.5585 47.5859C97.2372 49.1911 97.2487 50.6723 96.5935 52.0973Z" fill="#94A3B8"/>
<path d="M34.7134 10.5704C34.8955 11.2127 35.4802 11.6319 36.1163 11.6319C36.248 11.6319 36.3818 11.614 36.5148 11.5762C37.29 11.3566 37.7403 10.5502 37.5207 9.77483L35.9517 4.23835C35.7321 3.46321 34.9259 3.01252 34.1503 3.23251C33.3752 3.45212 32.9249 4.25858 33.1445 5.03392L34.7134 10.5704Z" fill="#94A3B8"/>
<path d="M15.6531 26.3054C15.9818 25.5698 15.6521 24.7071 14.9166 24.3782L10.5653 22.433C9.82909 22.1043 8.96681 22.4338 8.63808 23.1695C8.30935 23.9051 8.63905 24.7678 9.37451 25.0967L13.7258 27.0419C13.9194 27.1282 14.1215 27.1693 14.3204 27.1693C14.8781 27.1693 15.4107 26.8475 15.6531 26.3054Z" fill="#94A3B8"/>
<path d="M8.8857 66.4735C8.2119 66.9152 8.02381 67.8195 8.46555 68.4933C8.74565 68.9205 9.21152 69.1525 9.68691 69.1525C9.96137 69.1525 10.2388 69.0753 10.4854 68.9135L14.4714 66.3002C15.1452 65.8584 15.3333 64.9541 14.8916 64.2803C14.4498 63.6065 13.5453 63.4182 12.8717 63.8602L8.8857 66.4735Z" fill="#94A3B8"/>
<path d="M39.0834 87.742C38.3746 87.358 37.4895 87.621 37.1058 88.3295L34.8348 92.5199C34.4508 93.2283 34.7138 94.1137 35.4222 94.4975C35.6432 94.6173 35.8813 94.6741 36.1161 94.6741C36.6342 94.6741 37.1359 94.3975 37.4001 93.9101L39.671 89.7196C40.0548 89.0114 39.7918 88.126 39.0834 87.742Z" fill="#94A3B8"/>
<path d="M63.4854 11.5762C63.6184 11.6139 63.7522 11.6318 63.8839 11.6318C64.52 11.6318 65.1047 11.2124 65.2868 10.5703L66.8557 5.03383C67.0755 4.25869 66.625 3.45223 65.8499 3.23243C65.0746 3.01263 64.2681 3.46332 64.0485 4.23827L62.4795 9.77475C62.2597 10.5499 62.71 11.3564 63.4854 11.5762Z" fill="#94A3B8"/>
<path d="M91.362 23.1693C91.0332 22.4336 90.17 22.1045 89.4349 22.4329L85.0836 24.378C84.3479 24.7069 84.0183 25.5696 84.3472 26.3053C84.5895 26.8474 85.1219 27.1691 85.6798 27.1691C85.8788 27.1691 86.0809 27.1283 86.2744 27.0417L90.6257 25.0966C91.3612 24.7676 91.6909 23.905 91.362 23.1693Z" fill="#94A3B8"/>
<path d="M85.1081 64.2802C84.6664 64.954 84.8545 65.8583 85.5283 66.3001L89.5143 68.9134C89.7611 69.0752 90.0383 69.1525 90.3128 69.1525C90.788 69.1525 91.254 68.9204 91.5341 68.4932C91.9759 67.8194 91.7878 66.9151 91.114 66.4734L87.128 63.8601C86.454 63.4183 85.5501 63.6064 85.1081 64.2802Z" fill="#94A3B8"/>
<path d="M62.8941 88.3297C62.5105 87.6213 61.625 87.3579 60.9164 87.7421C60.208 88.1258 59.945 89.0113 60.3288 89.7197L62.5998 93.9101C62.8637 94.3976 63.3656 94.6742 63.8838 94.6742C64.1185 94.6742 64.3566 94.6174 64.5774 94.4978C65.2858 94.1138 65.5488 93.2284 65.165 92.5201L62.8941 88.3297Z" fill="#94A3B8"/>
</g>
<defs>
<clipPath id="clip0_10_1678">
<rect width="100" height="100" fill="white"/>
</clipPath>
</defs>
</svg>
